<svg width="24" height="24" viewBox="0 0 16 16" fill="none" xmlns="http://www.w3.org/2000/svg">
<g clip-path="url(#clip0_28_542)">
<path d="M13.9063 0.27002H2.09377C1.08654 0.27002 0.27002 1.08654 0.27002 2.09377V13.905C0.27002 14.9122 1.08654 15.7288 2.09377 15.7288H13.9063C14.9135 15.7288 15.73 14.9122 15.73 13.905V2.09377C15.73 1.08654 14.9135 0.27002 13.9063 0.27002Z" fill="url(#paint0_linear_28_542)"/>
<path d="M6.57867 7.53501C6.57867 7.53501 7.89117 7.43751 7.89117 5.89876C7.89117 4.36001 6.81742 3.60876 5.45742 3.60876H0.982422V12.2088H5.45742C5.45742 12.2088 8.18867 12.295 8.18867 9.67001C8.18867 9.67001 8.30867 7.53501 6.57867 7.53501ZM2.95367 5.13751H5.45367C5.45367 5.13751 6.06242 5.13751 6.06242 6.03251C6.06242 6.92751 5.70492 7.05751 5.29867 7.05751H2.95492L2.95367 5.13751ZM5.34117 10.68H2.95492V8.38251H5.45492C5.45492 8.38251 6.36117 8.37001 6.36117 9.56376C6.36367 10.5575 5.70117 10.67 5.34242 10.68H5.34117ZM11.8324 5.79751C8.52492 5.79751 8.52867 9.10126 8.52867 9.10126C8.52867 9.10126 8.30117 12.3888 11.8324 12.3888C11.8324 12.3888 14.7749 12.5563 14.7749 10.1025H13.2624C13.2624 10.1025 13.3124 11.0275 11.8874 11.0275C11.8874 11.0275 10.3737 11.1288 10.3737 9.52751H14.8299C14.8299 9.52751 15.3137 5.79751 11.8324 5.79751ZM13.1774 8.38251H10.3524C10.3524 8.38251 10.5374 7.05751 11.8662 7.05751C13.1949 7.05751 13.1774 8.38251 13.1774 8.38251ZM9.98242 4.11626H13.5299V5.17501H9.98242V4.11626Z" fill="white"/>
</g>
<defs>
<linearGradient id="paint0_linear_28_542" x1="8.00002" y1="0.27002" x2="8.00002" y2="15.73" gradientUnits="userSpaceOnUse">
<stop stop-color="#005CFF"/>
<stop offset="1" stop-color="#0047AD"/>
</linearGradient>
<clipPath id="clip0_28_542">
<rect width="16" height="16" fill="white"/>
</clipPath>
</defs>
</svg>
