<svg width="32" height="32" viewBox="0 0 32 32" fill="none" xmlns="http://www.w3.org/2000/svg">
<path d="M10.4 2.66663H21.6C25.8667 2.66663 29.3334 6.13329 29.3334 10.4V21.6C29.3334 23.651 28.5186 25.618 27.0683 27.0683C25.618 28.5185 23.651 29.3333 21.6 29.3333H10.4C6.13335 29.3333 2.66669 25.8666 2.66669 21.6V10.4C2.66669 8.34895 3.48145 6.38195 4.93173 4.93167C6.38201 3.48139 8.34901 2.66663 10.4 2.66663ZM10.1334 5.33329C8.86031 5.33329 7.63942 5.83901 6.73924 6.73918C5.83907 7.63936 5.33335 8.86025 5.33335 10.1333V21.8666C5.33335 24.52 7.48002 26.6666 10.1334 26.6666H21.8667C23.1397 26.6666 24.3606 26.1609 25.2608 25.2607C26.161 24.3606 26.6667 23.1397 26.6667 21.8666V10.1333C26.6667 7.47996 24.52 5.33329 21.8667 5.33329H10.1334ZM23 7.33329C23.442 7.33329 23.866 7.50889 24.1785 7.82145C24.4911 8.13401 24.6667 8.55793 24.6667 8.99996C24.6667 9.44199 24.4911 9.86591 24.1785 10.1785C23.866 10.491 23.442 10.6666 23 10.6666C22.558 10.6666 22.1341 10.491 21.8215 10.1785C21.5089 9.86591 21.3334 9.44199 21.3334 8.99996C21.3334 8.55793 21.5089 8.13401 21.8215 7.82145C22.1341 7.50889 22.558 7.33329 23 7.33329ZM16 9.33329C17.7681 9.33329 19.4638 10.0357 20.7141 11.2859C21.9643 12.5362 22.6667 14.2318 22.6667 16C22.6667 17.7681 21.9643 19.4638 20.7141 20.714C19.4638 21.9642 17.7681 22.6666 16 22.6666C14.2319 22.6666 12.5362 21.9642 11.286 20.714C10.0357 19.4638 9.33335 17.7681 9.33335 16C9.33335 14.2318 10.0357 12.5362 11.286 11.2859C12.5362 10.0357 14.2319 9.33329 16 9.33329ZM16 12C14.9392 12 13.9217 12.4214 13.1716 13.1715C12.4214 13.9217 12 14.9391 12 16C12 17.0608 12.4214 18.0782 13.1716 18.8284C13.9217 19.5785 14.9392 20 16 20C17.0609 20 18.0783 19.5785 18.8284 18.8284C19.5786 18.0782 20 17.0608 20 16C20 14.9391 19.5786 13.9217 18.8284 13.1715C18.0783 12.4214 17.0609 12 16 12Z" fill="white"/>
</svg>
