<svg width="24" height="24" viewBox="0 0 16 16" fill="none" xmlns="http://www.w3.org/2000/svg">
<g clip-path="url(#clip0_28_545)">
<path d="M0.340731 7.90428C0.340359 9.24859 0.691615 10.5612 1.35952 11.7182L0.276855 15.6712L4.32225 14.6104C5.44115 15.2196 6.6948 15.5387 7.96876 15.5388H7.97211C12.1777 15.5388 15.6011 12.1166 15.6029 7.91029C15.6037 5.87203 14.8107 3.95538 13.3698 2.51339C11.9292 1.07153 10.0132 0.277053 7.9718 0.276123C3.76572 0.276123 0.34253 3.69814 0.340793 7.90428" fill="url(#paint0_linear_28_545)"/>
<path d="M0.0683097 7.90177C0.0678756 9.29445 0.431721 10.654 1.12344 11.8524L0.00195312 15.9471L4.1924 14.8484C5.34701 15.4779 6.64698 15.8098 7.96977 15.8103H7.97318C12.3296 15.8103 15.8761 12.265 15.8779 7.90809C15.8787 5.79659 15.0571 3.81104 13.5647 2.3174C12.0722 0.823938 10.0877 0.000868217 7.97318 0C3.61597 0 0.0700462 3.54481 0.0683097 7.90177ZM2.56381 11.646L2.40735 11.3976C1.74961 10.3518 1.40245 9.14326 1.40295 7.90226C1.40437 4.28087 4.3516 1.33457 7.97566 1.33457C9.7307 1.33532 11.3801 2.01947 12.6206 3.26078C13.8611 4.5022 14.5437 6.15243 14.5433 7.9076C14.5417 11.529 11.5944 14.4757 7.97318 14.4757H7.97057C6.79147 14.475 5.63507 14.1584 4.62657 13.56L4.38657 13.4177L1.89988 14.0696L2.56381 11.646V11.646Z" fill="url(#paint1_linear_28_545)"/>
<path d="M5.99747 4.59831C5.8495 4.26944 5.69378 4.2628 5.55307 4.25704C5.43785 4.25208 5.30612 4.25245 5.17453 4.25245C5.04281 4.25245 4.82879 4.302 4.64789 4.49952C4.46681 4.69722 3.95654 5.17499 3.95654 6.14671C3.95654 7.11849 4.66433 8.0576 4.76299 8.1895C4.86178 8.32116 6.12938 10.3791 8.13695 11.1708C9.80541 11.8287 10.1449 11.6978 10.5071 11.6649C10.8692 11.632 11.6757 11.1872 11.8402 10.726C12.0049 10.2649 12.0049 9.86956 11.9555 9.78696C11.9061 9.70466 11.7744 9.65524 11.5769 9.55651C11.3793 9.45772 10.4083 8.97989 10.2272 8.91397C10.0462 8.84811 9.9145 8.81524 9.78278 9.01301C9.65105 9.21046 9.27282 9.65524 9.15754 9.78696C9.04237 9.91899 8.92708 9.93542 8.72963 9.83663C8.53198 9.73753 7.89589 9.52922 7.14123 8.85642C6.55406 8.33288 6.15766 7.68637 6.04243 7.4886C5.92721 7.29115 6.03009 7.18411 6.12913 7.08569C6.21788 6.99719 6.32671 6.85505 6.42557 6.73977C6.52405 6.62442 6.55692 6.54212 6.62278 6.4104C6.6887 6.27856 6.65571 6.16321 6.6064 6.06442C6.55692 5.96563 6.1731 4.98882 5.99747 4.59831Z" fill="white"/>
</g>
<defs>
<linearGradient id="paint0_linear_28_545" x1="766.581" y1="1539.78" x2="766.581" y2="0.276123" gradientUnits="userSpaceOnUse">
<stop stop-color="#1FAF38"/>
<stop offset="1" stop-color="#60D669"/>
</linearGradient>
<linearGradient id="paint1_linear_28_545" x1="793.8" y1="1594.71" x2="793.8" y2="0" gradientUnits="userSpaceOnUse">
<stop stop-color="#F9F9F9"/>
<stop offset="1" stop-color="white"/>
</linearGradient>
<clipPath id="clip0_28_545">
<rect width="15.88" height="16" fill="white"/>
</clipPath>
</defs>
</svg>
