<svg width="999" height="248" viewBox="0 0 999 248" fill="none" xmlns="http://www.w3.org/2000/svg">
<g filter="url(#filter0_b_36_85)">
<path d="M0 123C0 56.1735 54.1735 2 121 2H999V244H121C54.1735 244 0 189.826 0 123Z" fill="url(#paint0_linear_36_85)" fill-opacity="0.25"/>
</g>
<g filter="url(#filter1_d_36_85)">
<path d="M537.311 126.77H596.69C611.156 126.77 622.729 125.631 634.478 134.96C642.008 140.937 644.573 148.254 644.699 156.935C644.952 176.743 648.173 198.908 620.695 205.901C615.426 207.242 612.154 207.197 606.798 207.208H537.311V126.77ZM658.596 126.77H765.984V142.411H658.596V126.77ZM779.881 126.77H799.676L841.787 190.451H844.314L885.32 126.77H904.956V126.771L852.734 206.572C852.734 206.572 845.551 206.527 843.125 206.572C840.459 206.605 833.423 206.572 833.423 206.572L779.881 126.77ZM554.999 191.568H604.271C607.518 191.568 611.232 191.657 614.378 190.976C630.435 187.523 627.075 171.402 627.012 160.286C626.974 154.745 626.772 150.232 621.693 146.232C617.385 142.836 612.255 142.478 606.798 142.411H554.999V191.568ZM658.596 159.169H748.296V174.81H658.596V159.169ZM658.596 191.568H765.984V207.208H658.596V191.568Z" fill="#0F4665"/>
</g>
<g filter="url(#filter2_d_36_85)">
<path d="M187 40.0962H195.517H200.054L230.435 82.4781L247.468 56.8128V57.1976L263.65 82.4781L293.243 40.0962H297.717H306.233L271.124 93.2074H258.012L246.617 78.0168C236.116 92.8728 237.809 90.7699 236.16 93.2074C233.932 93.2074 231.422 93.1776 229.787 93.2074C227.487 93.2492 225.799 93.2074 223.094 93.2074L187 40.0962ZM315.602 93.6312L324.246 80.2474L341.39 54.2235C343.094 51.6211 349.161 41.8027 351.665 40.8064C353.121 40.2264 356.253 39.9793 358.05 40.0016C359.848 40.0241 363.27 40.0887 364.717 40.8546C367.17 42.1483 371.361 49.4945 373.021 51.9928L391.273 79.5039C393.853 83.4521 398.461 89.6012 399.917 93.6312H392.252C384.314 93.5866 384.876 91.4154 379.818 83.9652L367.545 65.3766C364.683 61.1235 360.595 55.8964 359.037 51.2493H357.334L336.655 83.2216L328.905 93.2074L324.97 93.6312H315.602ZM409.285 40.0962H421.209V83.2216H479.122V93.6312H409.285V40.0962ZM487.639 40.0962H499.562V83.2216H557.475V93.6312H487.639V40.0962ZM565.992 40.0962H577.915V93.6312H565.992V40.0962ZM586.432 40.0962H594.949L600.911 40.5423L613.686 50.5057L647.752 80.991V40.0962H659.676V93.6312H651.159L645.197 93.1851L632.422 83.2216L598.355 52.7364V93.6312H586.432V40.0962ZM671.599 83.2216H693.742H717.589C720.246 83.2067 722.869 83.3257 725.16 81.9278C729.546 79.266 729.044 75.0649 724.385 72.9384C722.137 71.9123 719.216 72.0685 716.737 72.0685H694.594C690.549 72.0685 684.706 72.3585 680.967 71.3324C672.876 69.124 667.69 62.3206 668.277 54.967C669.121 44.3492 678.48 40.111 689.484 40.0962H738.029V50.5057H715.034H695.446C692.473 50.5057 687.934 50.2604 685.26 51.2567C680.388 53.0635 678.855 57.4727 683.616 60.3651C686.069 61.8596 689.194 61.6514 692.039 61.6589H715.034C718.662 61.6589 724.496 61.4061 727.809 62.2463C736.522 64.4397 740.933 71.1465 740.55 78.7604C740.03 89.0584 730.926 93.5866 720.144 93.6312H671.599V83.2216ZM768.689 40.4828C773.475 39.821 780.663 40.0962 785.722 40.0962C797.365 40.0962 809.339 38.5942 817.634 47.5613C821.237 51.45 822.276 55.2942 822.344 60.1718C822.514 73.3548 824.686 88.1067 806.162 92.7612C802.611 93.6535 800.405 93.6238 796.794 93.6312C784.547 93.6461 766.338 95.8246 757.021 88.0769C752.218 84.0915 750.037 78.4852 749.952 72.812C749.799 61.6886 748.138 49.6135 761.024 43.0331C763.485 41.784 765.964 41.1148 768.689 40.4828ZM831.712 40.0962H840.229L846.191 40.5423L858.966 50.5057L893.033 80.991V40.0962H904.956V93.6312H896.439L890.478 93.1851L877.703 83.2216L843.636 52.7364V93.6312H831.712V40.0962ZM771.244 50.6321C759.747 53.4725 761.765 63.0865 761.876 71.3249C761.927 74.9088 762.336 77.9945 765.572 80.5746C770.818 84.7607 787.843 83.229 795.091 83.2216C797.28 83.2216 799.783 83.2811 801.904 82.8275C812.729 80.53 810.463 69.8007 810.421 62.4024C810.404 59.0193 810.353 56.2979 807.534 53.6435C804.127 50.4388 799.673 50.5132 795.091 50.6321H771.244Z" fill="white"/>
</g>
<defs>
<filter id="filter0_b_36_85" x="-40" y="-38" width="1079" height="322" filterUnits="userSpaceOnUse" color-interpolation-filters="sRGB">
<feFlood flood-opacity="0" result="BackgroundImageFix"/>
<feGaussianBlur in="BackgroundImageFix" stdDeviation="20"/>
<feComposite in2="SourceAlpha" operator="in" result="effect1_backgroundBlur_36_85"/>
<feBlend mode="normal" in="SourceGraphic" in2="effect1_backgroundBlur_36_85" result="shape"/>
</filter>
<filter id="filter1_d_36_85" x="497.311" y="86.7266" width="447.645" height="160.482" filterUnits="userSpaceOnUse" color-interpolation-filters="sRGB">
<feFlood flood-opacity="0" result="BackgroundImageFix"/>
<feColorMatrix in="SourceAlpha" type="matrix" values="0 0 0 0 0 0 0 0 0 0 0 0 0 0 0 0 0 0 127 0" result="hardAlpha"/>
<feOffset/>
<feGaussianBlur stdDeviation="20"/>
<feComposite in2="hardAlpha" operator="out"/>
<feColorMatrix type="matrix" values="0 0 0 0 0.0588235 0 0 0 0 0.27451 0 0 0 0 0.396078 0 0 0 1 0"/>
<feBlend mode="normal" in2="BackgroundImageFix" result="effect1_dropShadow_36_85"/>
<feBlend mode="normal" in="SourceGraphic" in2="effect1_dropShadow_36_85" result="shape"/>
</filter>
<filter id="filter2_d_36_85" x="147" y="0" width="797.956" height="133.924" filterUnits="userSpaceOnUse" color-interpolation-filters="sRGB">
<feFlood flood-opacity="0" result="BackgroundImageFix"/>
<feColorMatrix in="SourceAlpha" type="matrix" values="0 0 0 0 0 0 0 0 0 0 0 0 0 0 0 0 0 0 127 0" result="hardAlpha"/>
<feOffset/>
<feGaussianBlur stdDeviation="20"/>
<feComposite in2="hardAlpha" operator="out"/>
<feColorMatrix type="matrix" values="0 0 0 0 1 0 0 0 0 1 0 0 0 0 1 0 0 0 1 0"/>
<feBlend mode="normal" in2="BackgroundImageFix" result="effect1_dropShadow_36_85"/>
<feBlend mode="normal" in="SourceGraphic" in2="effect1_dropShadow_36_85" result="shape"/>
</filter>
<linearGradient id="paint0_linear_36_85" x1="-7.44313e-06" y1="123" x2="999" y2="123" gradientUnits="userSpaceOnUse">
<stop offset="0.110962" stop-color="#12939B"/>
<stop offset="0.973278" stop-color="#13CBD7"/>
</linearGradient>
</defs>
</svg>
